<?xml version="1.0" encoding="utf-8"?>
<!-- Generator: Adobe Illustrator 26.1.0, SVG Export Plug-In . SVG Version: 6.00 Build 0)  -->
<svg version="1.1" id="Layer_1" xmlns="http://www.w3.org/2000/svg" xmlns:xlink="http://www.w3.org/1999/xlink" x="0px" y="0px"
	 width="40px" height="40px" viewBox="0 0 40 40" style="enable-background:new 0 0 40 40;" xml:space="preserve">
<style type="text/css">
	.st0{fill:#231F20;}
	.st1{fill:#FFF64C;}
	.st2{fill:#FAB461;}
	.st3{fill:#0D0D0D;}
	.st4{fill:#FDDFBB;}
	.st5{fill:#CCEDDC;}
	.st6{fill:#CCEFFC;}
	.st7{fill:#EC1C24;stroke:#231F20;stroke-width:4.0987;stroke-linecap:round;stroke-linejoin:round;}
	.st8{fill:#FFFFFF;}
	.st9{fill:#231F20;stroke:#FFFF00;stroke-width:0.25;stroke-linecap:round;stroke-linejoin:round;}
	.st10{fill:#FFFFFF;stroke:#231F20;stroke-width:1.4622;stroke-linecap:round;stroke-linejoin:round;}
	.st11{fill:#FFFBD4;}
</style>
<g>
	<path class="st0" d="M38.18,1.6c-0.72-0.73-1.66-1.12-2.73-1.12H4.26c-1.08,0-1.99,0.39-2.77,1.17C0.75,2.37,0.36,3.3,0.36,4.37
		v31.2c0,1.07,0.39,1.99,1.17,2.77c0.73,0.73,1.65,1.13,2.73,1.13h31.2c1.07,0,2-0.4,2.77-1.18c0.73-0.73,1.12-1.66,1.12-2.73V4.37
		C39.35,3.3,38.96,2.37,38.18,1.6z"/>
	<g>
		<path class="st1" d="M35.93,3.86c-0.64-0.65-1.46-0.99-2.4-0.99H6.17c-0.94,0-1.75,0.34-2.43,1.03c-0.64,0.65-0.98,1.46-0.98,2.4
			v27.36c0,0.94,0.34,1.76,1.03,2.44c0.64,0.64,1.46,0.98,2.39,0.98h27.36c0.94,0,1.76-0.34,2.44-1.03
			c0.64-0.63,0.98-1.45,0.98-2.39V6.29C36.96,5.35,36.62,4.54,35.93,3.86z"/>
		<g>
			<path d="M27.8,10.2c0.23,0.55,0.23,1.14,0.01,1.67c-0.21,0.54-0.63,0.95-1.18,1.18c-0.54,0.23-1.13,0.23-1.66,0.01
				c-0.53-0.22-0.95-0.63-1.18-1.18c-0.22-0.55-0.23-1.13-0.01-1.67c0.22-0.54,0.64-0.96,1.19-1.18c0.54-0.23,1.13-0.23,1.66-0.02
				C27.15,9.24,27.57,9.66,27.8,10.2z"/>
			<path d="M24.27,16.44c0.42,0.62,0.38,1.21,0.08,1.68c-0.33,0.48-0.47,0.37-0.93,0.12l-2.21-3.73l-3,1.46l2.38,4.14
				c0.17,0.17,0.32,0.41,0.46,0.64c0.06,0.12,0.09,0.46,0.08,0.9l-0.07,5.63c-0.02,0.54-0.2,0.92-0.63,1.1
				c-0.12,0.05-0.21,0.08-0.35,0.1c-0.67,0.03-1.02-0.32-1.07-1.03l-0.33-5.18c0,0-4.1-3.74-4.44-4c-0.35-0.26-0.81-0.76-0.98-1.15
				c-0.17-0.4-0.15-1.21-0.06-1.46c0,0,0.3-1.17,1.04-1.77c0.74-0.59,5.84-3.67,6.19-3.77c0.35-0.11,0.92-0.07,1.38,0.17
				C22.3,10.55,24.27,16.44,24.27,16.44z"/>
			<path d="M30.28,21.4c-1.55-0.64-3.07-0.64-4.61,0c-1.51,0.63-2.59,1.72-3.22,3.26c-0.63,1.54-0.64,3.06-0.02,4.57
				c0.65,1.55,1.73,2.62,3.21,3.23c1.55,0.63,3.07,0.64,4.62,0c1.56-0.64,2.63-1.72,3.24-3.22c0.63-1.54,0.63-3.06-0.01-4.61
				C32.85,23.08,31.76,22.02,30.28,21.4z M32.1,28.61c-0.46,1.13-1.31,1.97-2.43,2.44c-1.13,0.47-2.25,0.5-3.38,0.02
				c-1.13-0.46-1.93-1.31-2.39-2.44c-0.47-1.14-0.48-2.21-0.02-3.35c0.46-1.12,1.25-1.94,2.38-2.42c1.13-0.46,2.26-0.48,3.39-0.02
				c1.12,0.46,1.94,1.24,2.42,2.38C32.54,26.36,32.52,27.5,32.1,28.61z"/>
			<path d="M14.36,21.33c-1.54-0.63-3.06-0.63-4.62,0.02c-1.54,0.64-2.62,1.72-3.23,3.2c-0.63,1.55-0.64,3.07,0.01,4.62
				c0.64,1.55,1.73,2.63,3.21,3.23c1.54,0.64,3.07,0.64,4.61,0c1.55-0.64,2.63-1.73,3.25-3.21c0.63-1.55,0.63-3.07-0.01-4.62
				C16.93,23.02,15.85,21.95,14.36,21.33z M16.14,28.56c-0.46,1.13-1.25,1.96-2.38,2.42c-1.13,0.47-2.25,0.5-3.38,0.02
				c-1.12-0.46-1.96-1.29-2.43-2.42c-0.47-1.13-0.5-2.25-0.03-3.38c0.46-1.13,1.32-1.93,2.45-2.39c1.13-0.47,2.23-0.44,3.34-0.02
				c1.13,0.46,1.94,1.24,2.42,2.38C16.58,26.31,16.61,27.43,16.14,28.56z"/>
			<path d="M20.08,9.17l-3.91,2.42c-0.44,0.3-1.07-0.41-1.34-0.89L14.6,10.4c-0.26-0.5-0.25-0.67,0.22-0.95l4.36-1.76
				c0.46-0.34,0.66-0.26,0.92,0.19l0.23,0.35C20.6,8.69,20.56,8.84,20.08,9.17z"/>
		</g>
	</g>
</g>
</svg>
