<?xml version="1.0" encoding="utf-8"?>
<!-- Generator: Adobe Illustrator 21.0.2, SVG Export Plug-In . SVG Version: 6.00 Build 0)  -->
<!DOCTYPE svg PUBLIC "-//W3C//DTD SVG 1.1//EN" "http://www.w3.org/Graphics/SVG/1.1/DTD/svg11.dtd">
<svg version="1.1" id="Layer_1" xmlns="http://www.w3.org/2000/svg" xmlns:xlink="http://www.w3.org/1999/xlink" x="0px" y="0px"
	 viewBox="0 0 40 40" style="enable-background:new 0 0 40 40;" xml:space="preserve">
<style type="text/css">
	.st0{fill:#231F20;}
	.st1{fill:#FFF64C;}
	.st2{fill:#FAB461;}
	.st3{fill:#FBCCE8;}
	.st4{fill:#0D0D0D;}
	.st5{fill:#FDDFBB;}
	.st6{fill:#CCEDDC;}
	.st7{fill:#CCEFFC;}
</style>
<g>
	<g>
		<path class="st0" d="M38.4,1.7c-0.7-0.7-1.7-1.1-2.7-1.1H4.5c-1.1,0-2,0.4-2.8,1.2C1,2.4,0.6,3.4,0.6,4.4v31.2
			c0,1.1,0.4,2,1.2,2.8c0.7,0.7,1.7,1.1,2.7,1.1h31.2c1.1,0,2-0.4,2.8-1.2c0.7-0.7,1.1-1.7,1.1-2.7V4.4C39.6,3.4,39.2,2.4,38.4,1.7z
			"/>
		<path class="st7" d="M36.5,3.9c-0.7-0.6-1.5-1-2.4-1H6.1c-1,0-1.8,0.3-2.5,1c-0.7,0.6-1,1.5-1,2.4v27.4c0,0.9,0.4,1.8,1,2.4
			c0.7,0.6,1.5,1,2.4,1h27.9c1,0,1.8-0.3,2.5-1c0.7-0.6,1-1.5,1-2.4V6.3C37.5,5.4,37.2,4.6,36.5,3.9z"/>
	</g>
	<g>
		<path class="st0" d="M9.8,27c0.4,0,1,0.2,1.7,0.4c0.7,0.3,1.3,0.5,1.7,0.5c0.4,0,1-0.1,1.7-0.4c0.7-0.3,1.4-0.5,1.7-0.5
			c0.4,0,1,0.2,1.7,0.4c0.7,0.3,1.3,0.5,1.7,0.5c0.4,0,1-0.1,1.7-0.4c0.7-0.3,1.4-0.5,1.8-0.5c0.4,0,1,0.2,1.7,0.4
			c0.7,0.3,1.4,0.5,1.7,0.5c0.4,0,1-0.1,1.7-0.4c0.7-0.3,1.4-0.5,1.8-0.5c0.4,0,1.1,0.2,2.3,0.7c0.6-1,0.9-1.9,0.9-2.5
			c0-1.4-0.5-2.6-1.6-3.6c-1-1-2.3-1.5-3.8-1.6c-0.5,1.6-1.6,2.4-3.3,2.4h-11l-0.8-0.6l1.9-3.3c1.8,1.1,2.8,1.6,3,1.6
			c0.4,0,0.7-0.1,0.9-0.4c0.5-0.7,1-1.4,1.6-2.1c0.8-1.1,1.2-1.9,1.2-2.2c0-0.8-0.4-1.2-1.2-1.2c-0.4,0-0.7,0.2-1,0.6l-1.8,2.7
			c-0.7-0.5-1.5-1-2.3-1.5c-1.1-0.7-2-1-2.5-1c-0.9,0-1.5,0.4-2,1.1l-3.1,5.2c-0.2,0.3-0.2,0.8-0.1,1.2H6.3v5.5c0.4,0,1-0.1,1.7-0.4
			C8.8,27.2,9.4,27,9.8,27z"/>
		<path class="st0" d="M30.5,28.3c-0.4,0-1,0.1-1.7,0.4c-0.7,0.3-1.4,0.5-1.8,0.5c-0.4,0-1-0.1-1.7-0.4c-0.7-0.3-1.4-0.5-1.7-0.5
			c-0.4,0-1,0.2-1.7,0.4c-0.7,0.3-1.4,0.5-1.7,0.5c-0.4,0-1-0.1-1.7-0.4c-0.7-0.3-1.3-0.5-1.7-0.5c-0.4,0-1,0.2-1.7,0.4
			c-0.7,0.3-1.3,0.5-1.8,0.5c-0.4,0-1-0.1-1.7-0.4c-0.7-0.3-1.3-0.5-1.7-0.5c-0.4,0-1,0.2-1.7,0.4c-0.7,0.3-1.4,0.5-1.7,0.5v2.5
			c0.4,0,1-0.1,1.7-0.4c0.7-0.3,1.4-0.5,1.7-0.5c0.4,0,1,0.2,1.7,0.4c0.7,0.3,1.3,0.5,1.7,0.5c0.4,0,1-0.1,1.7-0.4
			c0.7-0.3,1.4-0.5,1.7-0.5c0.4,0,1,0.2,1.7,0.4c0.7,0.3,1.3,0.5,1.7,0.5c0.4,0,1-0.1,1.7-0.4c0.7-0.3,1.4-0.5,1.8-0.5
			c0.4,0,1,0.2,1.7,0.4c0.7,0.3,1.4,0.5,1.7,0.5c0.4,0,1-0.1,1.7-0.4c0.7-0.3,1.4-0.5,1.8-0.5c0.4,0,1,0.2,1.7,0.4
			c0.7,0.3,1.3,0.5,1.7,0.5v-2.5c-0.4,0-1-0.1-1.7-0.4C31.5,28.5,30.9,28.3,30.5,28.3z"/>
		<path class="st0" d="M15.9,15c0.8,0,1.4-0.3,2-0.8c0.6-0.6,0.9-1.2,0.9-2c0-0.8-0.3-1.4-0.8-2c-0.6-0.6-1.3-0.8-2.1-0.8
			c-0.8,0-1.4,0.3-2,0.8c-0.6,0.6-0.8,1.2-0.8,2c0,0.8,0.3,1.4,0.8,2C14.4,14.7,15.1,15,15.9,15z"/>
	</g>
</g>
</svg>
