<?xml version="1.0" encoding="utf-8"?>
<!-- Generator: Adobe Illustrator 21.0.2, SVG Export Plug-In . SVG Version: 6.00 Build 0)  -->
<!DOCTYPE svg PUBLIC "-//W3C//DTD SVG 1.1//EN" "http://www.w3.org/Graphics/SVG/1.1/DTD/svg11.dtd">
<svg version="1.1" id="Layer_1" xmlns="http://www.w3.org/2000/svg" xmlns:xlink="http://www.w3.org/1999/xlink" x="0px" y="0px"
	 viewBox="0 0 40 40" style="enable-background:new 0 0 40 40;" xml:space="preserve">
<style type="text/css">
	.st0{fill:#231F20;}
	.st1{fill:#FFF64C;}
	.st2{fill:#FAB461;}
	.st3{fill:#FBCCE8;}
	.st4{fill:#0D0D0D;}
	.st5{fill:#FDDFBB;}
	.st6{fill:#CCEDDC;}
	.st7{fill:#CCEFFC;}
</style>
<g>
	<path class="st0" d="M38.5,1.7c-0.7-0.7-1.7-1.1-2.7-1.1H4.6c-1.1,0-2,0.4-2.8,1.2C1.1,2.5,0.7,3.4,0.7,4.5v31.2
		c0,1.1,0.4,2,1.2,2.8c0.7,0.7,1.7,1.1,2.7,1.1h31.2c1.1,0,2-0.4,2.8-1.2c0.7-0.7,1.1-1.7,1.1-2.7V4.5C39.7,3.4,39.3,2.5,38.5,1.7z"
		/>
	<path class="st7" d="M36.3,4c-0.6-0.6-1.4-1-2.4-1H6.5C5.6,3,4.8,3.3,4.1,4c-0.6,0.6-1,1.4-1,2.4v27.4c0,0.9,0.3,1.7,1,2.4
		c0.6,0.6,1.5,1,2.4,1h27.4c0.9,0,1.8-0.3,2.4-1c0.6-0.6,1-1.4,1-2.4V6.4C37.3,5.5,37,4.7,36.3,4z"/>
	<g>
		<path class="st0" d="M18.8,12.3c-0.1,0-0.3-0.1-0.5-0.1c-0.7,0-1,0.3-1,1c0,0.1,0,0.2,0.1,0.3l-6.7,6.6c-0.3,0.3-0.8,0.5-1.3,0.5
			c-0.6,0-1-0.2-1.4-0.5c-0.4-0.4-0.6-0.9-0.6-1.4c0-0.9,0.4-1.5,1.2-1.8v1l2.6-2.6L8.6,16c-1.4,0.3-2.1,1.2-2.1,2.7
			c0,0.8,0.3,1.5,0.8,2c0.6,0.6,1.2,0.8,2,0.8c0.8,0,1.4-0.3,1.9-0.8l6.6-6.6c0.1,0,0.3,0.1,0.4,0.1c0.7,0,1-0.3,1-1
			c0-0.1,0-0.2,0-0.3c3.4-3.4,7.3-5.1,11.7-5.1c1,0,2,0.1,3,0.3V7.3C33,7.1,32,7,31,7C26.4,7,22.3,8.8,18.8,12.3z"/>
		<path class="st0" d="M15.5,24.6c2.2,0.9,3.7,1.8,4.5,2.6c0.1,0.1,0.2,0.2,0.2,0.3c0,0,0,0.1-0.2,0.1l-5.7-0.3
			c-0.2,0-0.3,0-0.3,0.1c0,0,0,0.1,0.1,0.2c3.7,3.2,9.5,4.8,17.6,4.8c0.7,0,1.5,0,2.2,0V18.1c-7-0.1-13.3,1.8-18.7,5.8
			C15.3,24.2,15.4,24.3,15.5,24.6z M21.5,23.4c0.7,0,1,0.3,1,1c0,0.7-0.3,1-1,1c-0.7,0-1-0.3-1-1C20.5,23.8,20.9,23.4,21.5,23.4z"/>
	</g>
</g>
</svg>
