<?xml version="1.0" encoding="utf-8"?>
<!-- Generator: Adobe Illustrator 21.0.2, SVG Export Plug-In . SVG Version: 6.00 Build 0)  -->
<!DOCTYPE svg PUBLIC "-//W3C//DTD SVG 1.1//EN" "http://www.w3.org/Graphics/SVG/1.1/DTD/svg11.dtd">
<svg version="1.1" id="Layer_1" xmlns="http://www.w3.org/2000/svg" xmlns:xlink="http://www.w3.org/1999/xlink" x="0px" y="0px"
	 viewBox="0 0 40 40" style="enable-background:new 0 0 40 40;" xml:space="preserve">
<style type="text/css">
	.st0{fill:#231F20;}
	.st1{fill:#FFF64C;}
</style>
<g>
	<path class="st0" d="M38.4,1.7c-0.7-0.7-1.7-1.1-2.7-1.1H4.5c-1.1,0-2,0.4-2.8,1.2C1,2.5,0.6,3.4,0.6,4.5v31.2c0,1.1,0.4,2,1.2,2.8
		c0.7,0.7,1.6,1.1,2.7,1.1h31.2c1.1,0,2-0.4,2.8-1.2c0.7-0.7,1.1-1.7,1.1-2.7V4.5C39.6,3.4,39.2,2.5,38.4,1.7z"/>
	<path class="st1" d="M36.2,4c-0.6-0.6-1.5-1-2.4-1H6.4C5.5,3,4.7,3.3,4,4C3.3,4.7,3,5.5,3,6.4v27.4c0,0.9,0.3,1.8,1,2.4
		c0.6,0.6,1.4,1,2.4,1h27.4c0.9,0,1.7-0.3,2.4-1c0.6-0.6,1-1.5,1-2.4V6.4C37.2,5.5,36.9,4.7,36.2,4z"/>
	<g>
		<path d="M17.9,11.9l-2.4,4.9c-0.3,0.6-1.3,0.3-1.9,0l-0.4-0.2c-0.6-0.3-0.7-0.5-0.4-1.1L16,11c0.3-0.6,0.5-0.7,1.1-0.4l0.4,0.2
			C18.1,11.1,18.2,11.3,17.9,11.9z"/>
		<path d="M24.8,9c0,1.2-0.9,2.1-2,2.1c-1.1,0-2.1-0.8-2.1-2c0-1.1,0.9-2.1,2-2.1C23.8,7,24.8,7.9,24.8,9z"/>
		<path d="M19.3,24.4l1.7,3.8c0,0-2.3,3.7-2.5,4.3c-0.3,0.6,0.7,0.9,1.2,0c0.5-0.9,1.9-2.7,1.9-2.7s0.4,2.1,0.8,2.9
			c0.4,0.9,1.9,0.7,1.7-0.5c-0.2-1-1.2-4.7-1.2-4.7l4-6.8c0,0,0.2,0.1,0.7,0.2c0.5,0.1,0.7-0.5,0.2-0.9c-0.2-0.1-3.5-1.9-4.1-2.9
			c-0.6-1-1-3.1-1-3.1c-0.1-0.7-0.7-1.9-2-2.2c-0.7-0.2-1.6-0.3-2.1,0.9L16,17.7c-0.5,1.3-0.5,2.9,0.5,3.9c0,0-3.4,9.7-3.6,10.4
			c0,0.9,0.8,1.3,1.5,0.6c0.4-0.8,4.2-8.7,4.2-8.7L19.3,24.4z M20.2,20.2l1.3-2.9c0,0,0.7,1.2,1.4,1.6c0.7,0.5,3,1.2,3,1.2l-3.4,5.7
			C21.9,23.1,21.1,21.1,20.2,20.2z"/>
	</g>
</g>
</svg>
