<?xml version="1.0" encoding="utf-8"?>
<!-- Generator: Adobe Illustrator 21.0.2, SVG Export Plug-In . SVG Version: 6.00 Build 0)  -->
<!DOCTYPE svg PUBLIC "-//W3C//DTD SVG 1.1//EN" "http://www.w3.org/Graphics/SVG/1.1/DTD/svg11.dtd">
<svg version="1.1" id="Layer_1" xmlns="http://www.w3.org/2000/svg" xmlns:xlink="http://www.w3.org/1999/xlink" x="0px" y="0px"
	 viewBox="0 0 40 40" style="enable-background:new 0 0 40 40;" xml:space="preserve">
<style type="text/css">
	.st0{fill:#231F20;}
	.st1{fill:#FFF64C;}
	.st2{fill:#FAB461;}
	.st3{fill:#FBCCE8;}
	.st4{fill:#0D0D0D;}
	.st5{fill:#FDDFBB;}
	.st6{fill:#CCEDDC;}
</style>
<g>
	<path class="st0" d="M38.3,1.7c-0.7-0.7-1.7-1.1-2.7-1.1H4.4c-1.1,0-2,0.4-2.8,1.2C0.9,2.5,0.5,3.4,0.5,4.5v31.2
		c0,1.1,0.4,2,1.2,2.8c0.7,0.7,1.6,1.1,2.7,1.1h31.2c1.1,0,2-0.4,2.8-1.2c0.7-0.7,1.1-1.7,1.1-2.7V4.5C39.5,3.4,39.1,2.5,38.3,1.7z"
		/>
	<g>
		<path class="st2" d="M36.1,4c-0.6-0.6-1.5-1-2.4-1H6.3C5.4,3,4.6,3.3,3.9,4c-0.6,0.6-1,1.5-1,2.4v27.4c0,0.9,0.3,1.8,1,2.4
			c0.6,0.6,1.5,1,2.4,1h27.4c0.9,0,1.8-0.3,2.4-1c0.6-0.6,1-1.5,1-2.4V6.4C37.1,5.5,36.8,4.7,36.1,4z"/>
		<path class="st0" d="M22,8c0-0.6-0.2-1-0.6-1.4C21,6.2,20.6,6,20,6c-0.5,0-1,0.2-1.4,0.6C18.2,7,18,7.5,18,8c0,0.6,0.2,1,0.6,1.5
			c0.4,0.4,0.8,0.6,1.4,0.6c0.6,0,1-0.2,1.4-0.6C21.8,9.1,22,8.6,22,8z"/>
		<path class="st0" d="M33.7,13.3l-4-2.7L29.3,9l-7.1,7.6h-2.2v-1.4l1.7,0.3c0.6,0.2,1,0,1.1-0.5c0.2-0.6-0.1-0.7-0.7-0.9l-2.2-0.8
			v-1c0-0.5-0.2-1-0.6-1.4c-0.4-0.4-0.8-0.6-1.3-0.6c-0.5,0-1,0.2-1.4,0.6c-0.4,0.4-0.5,0.8-0.5,1.4v4.3c0,0-3.3-1-4.9-0.9
			C9.8,15.9,7.3,17.1,7,18l-0.7,5l0.5,0.8l0.7-4.5H8l-0.3,4.5l0.6-0.6l0.7-4.1l0.4-0.9v4.9c0,0-0.5,1.6-0.8,2.5
			c-0.3,0.9,0.3,7.1,0.3,7.1c0,0.9-0.2,1.4,0.7,1.4c0.9,0,1-0.5,1-1.4c0,0-0.3-5.3,0.1-6.3c0.4-1.1,1.5-2.2,1.5-2.2s0.3,2.3,0.6,3.1
			c0.3,0.8,2.8,6.1,2.8,6.1c0.2,0.5,0.2,0.8,0.8,0.8c0.8,0,1-0.5,0.9-1.2c0-0.2-2.6-6.6-2.6-6.6s0.3-1.9,1.2-2.4
			c3.4,3.8,6.5,0.4,6.5,0.4l0.7,8.5c0,0.9-0.2,1.3,0.6,1.3c0.9,0,1-0.4,1-1.3l0.3-8.5l3-6.1c0.2,0,0.6,0.1,1.1,0.1
			c0.7,0,1.5-0.2,2.1-0.7c0.7-0.5,1.1-1.1,1.2-1.8l0.4,0.1c0.8,0.2,1.3-0.2,1.4-1.1C34.4,14.1,34.2,13.6,33.7,13.3z M30.8,16.9
			c-0.5,0.4-1,0.6-1.6,0.6c-0.3,0-0.6,0-0.8,0l1.2-2.3l2.1,0.3C31.6,16.1,31.3,16.6,30.8,16.9z"/>
	</g>
</g>
</svg>
