<?xml version="1.0" encoding="utf-8"?>
<!-- Generator: Adobe Illustrator 26.1.0, SVG Export Plug-In . SVG Version: 6.00 Build 0)  -->
<svg version="1.1" id="Layer_1" xmlns="http://www.w3.org/2000/svg" xmlns:xlink="http://www.w3.org/1999/xlink" x="0px" y="0px"
	 width="40px" height="40px" viewBox="0 0 40 40" style="enable-background:new 0 0 40 40;" xml:space="preserve">
<style type="text/css">
	.st0{fill:#231F20;}
	.st1{fill:#FFF64C;}
	.st2{fill:#FAB461;}
	.st3{fill:#0D0D0D;}
	.st4{fill:#FDDFBB;}
	.st5{fill:#CCEDDC;}
	.st6{fill:#CCEFFC;}
	.st7{fill:#EC1C24;stroke:#231F20;stroke-width:4.0987;stroke-linecap:round;stroke-linejoin:round;}
	.st8{fill:#FFFFFF;}
	.st9{fill:#231F20;stroke:#FFFF00;stroke-width:0.25;stroke-linecap:round;stroke-linejoin:round;}
	.st10{fill:#FFFFFF;stroke:#231F20;stroke-width:1.4622;stroke-linecap:round;stroke-linejoin:round;}
	.st11{fill:#FFFBD4;}
</style>
<g>
	<g>
		<g>
			<path class="st0" d="M38.16,1.71c-0.72-0.74-1.66-1.12-2.73-1.12H4.23c-1.07,0-2,0.38-2.78,1.16C0.72,2.49,0.33,3.41,0.33,4.48
				v31.2c0,1.07,0.39,2.01,1.18,2.78c0.72,0.74,1.65,1.12,2.73,1.12h31.2c1.07,0,2-0.38,2.78-1.17c0.73-0.73,1.12-1.66,1.12-2.73
				V4.48C39.33,3.41,38.94,2.49,38.16,1.71z"/>
		</g>
	</g>
	<path class="st1" d="M35.91,3.97c-0.64-0.65-1.46-0.99-2.4-0.99H6.15C5.21,2.98,4.4,3.32,3.71,4C3.07,4.65,2.73,5.47,2.73,6.4
		v27.37c0,0.94,0.34,1.76,1.02,2.45c0.64,0.64,1.46,0.98,2.4,0.98h27.36c0.94,0,1.76-0.34,2.44-1.03c0.64-0.64,0.98-1.46,0.98-2.4
		V6.4C36.94,5.47,36.6,4.65,35.91,3.97z"/>
	<g>
		<path class="st9" d="M13.2,7.73c1.6-0.94,3.57-1.41,5.9-1.41c3.07,0,5.62,0.67,7.65,2c2.03,1.33,3.05,3.31,3.05,5.93
			c0,1.61-0.44,2.95-1.32,4.05c-0.52,0.67-1.5,1.52-2.97,2.56l-1.44,1.02c-0.78,0.56-1.3,1.2-1.56,1.94
			c-0.16,0.47-0.25,1.2-0.26,2.18h-5.52c0.08-2.08,0.3-3.53,0.65-4.32c0.35-0.8,1.26-1.71,2.72-2.75l1.48-1.05
			c0.48-0.33,0.88-0.7,1.18-1.09c0.54-0.68,0.81-1.43,0.81-2.24c0-0.94-0.3-1.8-0.9-2.57c-0.61-0.77-1.7-1.16-3.31-1.16
			c-1.57,0-2.68,0.48-3.34,1.43c-0.66,0.95-0.99,1.94-0.99,2.96H9.14C9.31,11.69,10.66,9.2,13.2,7.73z M16.57,28.54h6.09v5.35h-6.09
			V28.54z"/>
	</g>
</g>
</svg>
