<?xml version="1.0" encoding="utf-8"?>
<!-- Generator: Adobe Illustrator 21.0.2, SVG Export Plug-In . SVG Version: 6.00 Build 0)  -->
<!DOCTYPE svg PUBLIC "-//W3C//DTD SVG 1.1//EN" "http://www.w3.org/Graphics/SVG/1.1/DTD/svg11.dtd">
<svg version="1.1" id="Layer_1" xmlns="http://www.w3.org/2000/svg" xmlns:xlink="http://www.w3.org/1999/xlink" x="0px" y="0px"
	 viewBox="0 0 40 40" style="enable-background:new 0 0 40 40;" xml:space="preserve">
<style type="text/css">
	.st0{fill:#231F20;}
	.st1{fill:#FFFFFF;stroke:#231F20;stroke-width:1.4622;stroke-linecap:round;stroke-linejoin:round;}
	.st2{fill:#FFFBD4;}
	.st3{fill:#FFF64C;}
	.st4{fill:#FAB461;}
	.st5{fill:#FBCCE8;}
	.st6{fill:#0D0D0D;}
	.st7{fill:#FDDFBB;}
	.st8{fill:#CCEDDC;}
	.st9{fill:#CCEFFC;}
	.st10{fill:#EC1C24;stroke:#231F20;stroke-width:4.0987;stroke-linecap:round;stroke-linejoin:round;}
	.st11{fill:#FFFFFF;}
	.st12{fill:#231F20;stroke:#231F20;stroke-width:0.65;}
</style>
<symbol  id="Historic" viewBox="-4.8 -5.5 10 10.5">
	<g>
		<polygon class="st0" points="3.6,-2.9 -2.7,-2.9 -1.2,3.8 1.6,3.8 		"/>
		<g>
			<path class="st1" d="M4.4-1.9v1.8c0,0.1,0,0.2-0.1,0.2v1.4c0,0.2-0.1,0.3-0.3,0.3H3.8c0.1,0-1.6,0-2.2,1.3c0,0-0.2,0.4-0.3,0.5
				C1.1,4,0.7,4.3,0.2,4.3c-0.5,0-0.9-0.2-1.1-0.6c-0.1-0.1-0.3-0.5-0.3-0.5c-0.6-1.3-2.3-1.3-2.2-1.3h-0.2c-0.2,0-0.3-0.1-0.3-0.3
				V0.2c-0.1,0-0.1-0.1-0.1-0.2v-1.8C-4-1.9-4-2-4-2v-1.7c0-0.1,0.1-0.2,0.2-0.2c0,0,0,0,0,0c0,0,0,0,0,0h0.2h2
				c0-0.1,0.1-0.2,0.2-0.2h0.5c0.4-0.1,0.7-0.2,0.7-0.5c0-0.3,0.3-0.1,0.4-0.1c0.1,0,0.3-0.2,0.4,0.1c0,0.3,0.4,0.5,0.7,0.5h0.5
				C1.9-4.1,2-4,2-3.9h2h0.2c0,0,0,0,0,0c0,0,0,0,0.1,0c0.1,0,0.2,0.1,0.2,0.2V-2C4.5-2,4.5-1.9,4.4-1.9z M0.2,3.6
				c0.6,0,1.1-0.5,1.1-1.1c0-0.6-0.5-1.1-1.1-1.1c-0.6,0-1.1,0.5-1.1,1.1C-0.8,3.2-0.4,3.6,0.2,3.6z M2.9-2.7c0-0.1-0.1-0.3-0.3-0.3
				h-4.9c-0.1,0-0.3,0.1-0.3,0.3v2.9c0,0.1,0.1,0.3,0.3,0.3h4.9c0.1,0,0.3-0.1,0.3-0.3V-2.7z"/>
			<path class="st2" d="M4.4-1.9v1.8c0,0.1,0,0.2-0.1,0.2v1.4c0,0.2-0.1,0.3-0.3,0.3H3.8c0.1,0-1.6,0-2.2,1.3c0,0-0.2,0.4-0.3,0.5
				C1.1,4,0.7,4.3,0.2,4.3c-0.5,0-0.9-0.2-1.1-0.6c-0.1-0.1-0.3-0.5-0.3-0.5c-0.6-1.3-2.3-1.3-2.2-1.3h-0.2c-0.2,0-0.3-0.1-0.3-0.3
				V0.2c-0.1,0-0.1-0.1-0.1-0.2v-1.8C-4-1.9-4-2-4-2v-1.7c0-0.1,0.1-0.2,0.2-0.2c0,0,0,0,0,0c0,0,0,0,0,0h0.2h2
				c0-0.1,0.1-0.2,0.2-0.2h0.5c0.4-0.1,0.7-0.2,0.7-0.5c0-0.3,0.3-0.1,0.4-0.1c0.1,0,0.3-0.2,0.4,0.1c0,0.3,0.4,0.5,0.7,0.5h0.5
				C1.9-4.1,2-4,2-3.9h2h0.2c0,0,0,0,0,0c0,0,0,0,0.1,0c0.1,0,0.2,0.1,0.2,0.2V-2C4.5-2,4.5-1.9,4.4-1.9z M0.2,3.6
				c0.6,0,1.1-0.5,1.1-1.1c0-0.6-0.5-1.1-1.1-1.1c-0.6,0-1.1,0.5-1.1,1.1C-0.8,3.2-0.4,3.6,0.2,3.6z M2.9-2.7c0-0.1-0.1-0.3-0.3-0.3
				h-4.9c-0.1,0-0.3,0.1-0.3,0.3v2.9c0,0.1,0.1,0.3,0.3,0.3h4.9c0.1,0,0.3-0.1,0.3-0.3V-2.7z"/>
		</g>
	</g>
</symbol>
<use xlink:href="#Historic"  width="10" height="10.5" x="-4.8" y="-5.5" transform="matrix(3.4571 0 0 -3.4571 19.0554 18.9824)" style="overflow:visible;"/>
</svg>
