<?xml version="1.0" encoding="utf-8"?>
<!-- Generator: Adobe Illustrator 21.0.2, SVG Export Plug-In . SVG Version: 6.00 Build 0)  -->
<!DOCTYPE svg PUBLIC "-//W3C//DTD SVG 1.1//EN" "http://www.w3.org/Graphics/SVG/1.1/DTD/svg11.dtd">
<svg version="1.1" id="Layer_1" xmlns="http://www.w3.org/2000/svg" xmlns:xlink="http://www.w3.org/1999/xlink" x="0px" y="0px"
	 viewBox="0 0 40 40" style="enable-background:new 0 0 40 40;" xml:space="preserve">
<style type="text/css">
	.st0{fill:#231F20;}
	.st1{fill:#FFF64C;}
	.st2{fill:#FAB461;}
	.st3{fill:#FBCCE8;}
	.st4{fill:#0D0D0D;}
	.st5{fill:#FDDFBB;}
	.st6{fill:#CCEDDC;}
</style>
<g>
	<path class="st4" d="M38.4,1.8c-0.7-0.7-1.6-1.1-2.7-1.1H4.4c-1.1,0-2,0.4-2.8,1.2C0.9,2.6,0.5,3.5,0.5,4.6v31.2
		c0,1.1,0.4,2,1.2,2.8c0.7,0.7,1.7,1.1,2.7,1.1h31.2c1.1,0,2-0.4,2.8-1.2c0.7-0.7,1.1-1.7,1.1-2.7V4.6C39.5,3.5,39.1,2.6,38.4,1.8z"
		/>
	<g>
		<path class="st5" d="M36.1,4.1c-0.6-0.6-1.5-1-2.4-1H6.3c-0.9,0-1.7,0.3-2.4,1c-0.6,0.6-1,1.5-1,2.4v27.4c0,0.9,0.3,1.8,1,2.4
			c0.6,0.6,1.5,1,2.4,1h27.4c0.9,0,1.7-0.3,2.4-1c0.6-0.6,1-1.4,1-2.4V6.5C37.1,5.6,36.8,4.8,36.1,4.1z"/>
		<path class="st0" d="M27.1,20.3c0-0.5-0.2-0.9-0.5-1.2c-0.3-0.3-0.7-0.5-1.2-0.5c-0.2,0-0.5,0.1-0.7,0.2l-6.6,2.9
			c-1.5-1.8-3.5-2.7-6.1-2.7c-1.2,0-2.4,0.3-3.5,0.8C8.2,20.1,8,20.5,8,20.9c0,0.3,0.1,0.5,0.3,0.9c1.1-0.7,2.3-1.1,3.7-1.1
			c1.7,0,3.2,0.6,4.5,1.8c1.2,1.2,1.8,2.7,1.8,4.4v0.7H22c0.4,0,0.7-0.2,1-0.7l3.8-5.6C27,21,27.1,20.7,27.1,20.3z"/>
		<path class="st0" d="M32,22.4L31.5,21h-1.9l-2-4.4c-0.6-0.5-2.1-0.7-2.1-0.7c-0.5,0-0.8,0.1-0.8,0.5c0,0.5,0.2,0.4,0.8,0.7
			c0,0,0.8,0.3,1.1,0.5c0.3,0.3,1.7,4.2,1.7,4.2c0.1,0.3,0.3,0.4,0.7,0.4H32z"/>
		<path class="st0" d="M15.8,23.1c-1-1-2.3-1.6-3.8-1.6c-1.5,0-2.7,0.5-3.8,1.6c-1,1-1.6,2.3-1.6,3.8c0,1.5,0.5,2.7,1.6,3.8
			c1,1,2.3,1.6,3.8,1.6c1.5,0,2.7-0.5,3.8-1.6c1-1,1.6-2.3,1.6-3.8C17.4,25.4,16.8,24.2,15.8,23.1z M14.5,29.4c-0.7,0.7-1.5,1-2.5,1
			s-1.8-0.3-2.5-1c-0.7-0.7-1-1.5-1-2.4c0-1,0.3-1.8,1-2.5c0.7-0.7,1.5-1,2.5-1s1.8,0.3,2.5,1c0.7,0.7,1,1.5,1,2.5
			C15.5,27.9,15.1,28.7,14.5,29.4z"/>
		<path class="st0" d="M33.1,24.3c-0.9-0.9-2-1.4-3.3-1.4c-1.3,0-2.4,0.4-3.3,1.3c-0.9,0.9-1.3,2-1.3,3.3c0,1.3,0.4,2.4,1.3,3.3
			c0.9,0.9,2,1.3,3.3,1.3c1.3,0,2.4-0.5,3.3-1.4c0.9-0.9,1.4-2,1.4-3.3C34.4,26.3,34,25.2,33.1,24.3z M31.9,29.7
			c-0.6,0.6-1.3,0.9-2.1,0.9c-0.9,0-1.6-0.3-2.1-0.9c-0.6-0.6-0.9-1.3-0.9-2.1c0-0.8,0.3-1.6,0.9-2.1c0.6-0.6,1.3-0.9,2.1-0.9
			c0.8,0,1.5,0.3,2.1,0.9c0.6,0.6,0.9,1.3,0.9,2.1C32.8,28.4,32.5,29.1,31.9,29.7z"/>
		<path class="st0" d="M31.1,19.7v-3.2c-0.2,0-0.3,0-0.4,0c-1.1,0-1.6,0.6-1.6,1.6c0,0.4,0.2,0.8,0.5,1.1c0.3,0.3,0.7,0.5,1.1,0.5
			C30.8,19.8,30.9,19.7,31.1,19.7z"/>
		<path class="st0" d="M21.5,21.3c-0.4,1.1-2.5,1.4-4.6,0.6c-2.1-0.8-3.5-2.4-3-3.5c0.4-1.1,2.5-1.4,4.6-0.6
			C20.6,18.6,22,20.2,21.5,21.3z"/>
		<path class="st0" d="M21.7,9.3c0-0.5-0.2-1-0.5-1.3c-0.4-0.4-0.8-0.5-1.3-0.5c-0.5,0-0.9,0.2-1.3,0.6C18.2,8.4,18,8.8,18,9.3
			c0,0.5,0.2,1,0.5,1.4c0.4,0.4,0.8,0.6,1.3,0.6c0.5,0,1-0.2,1.3-0.6C21.6,10.3,21.7,9.9,21.7,9.3z"/>
		<path class="st0" d="M20.1,19v-2.3l1.6,0.3c0.6,0.2,0.9,0,1.1-0.5c0.2-0.6-0.1-0.7-0.7-0.8l-2.1-0.7v-0.9c0-0.5-0.2-0.9-0.5-1.3
			c-0.3-0.4-0.8-0.6-1.3-0.6c-0.5,0-0.9,0.2-1.3,0.5c-0.3,0.4-0.5,0.8-0.5,1.3v4"/>
	</g>
</g>
</svg>
