<?xml version="1.0" encoding="utf-8"?>
<!-- Generator: Adobe Illustrator 21.0.2, SVG Export Plug-In . SVG Version: 6.00 Build 0)  -->
<!DOCTYPE svg PUBLIC "-//W3C//DTD SVG 1.1//EN" "http://www.w3.org/Graphics/SVG/1.1/DTD/svg11.dtd">
<svg version="1.1" id="Layer_1" xmlns="http://www.w3.org/2000/svg" xmlns:xlink="http://www.w3.org/1999/xlink" x="0px" y="0px"
	 viewBox="0 0 40 40" style="enable-background:new 0 0 40 40;" xml:space="preserve">
<style type="text/css">
	.st0{fill:#231F20;}
	.st1{fill:#FFF64C;}
	.st2{fill:#FAB461;}
	.st3{fill:#FBCCE8;}
	.st4{fill:#0D0D0D;}
	.st5{fill:#FDDFBB;}
	.st6{fill:#CCEDDC;}
</style>
<g>
	<g>
		<path class="st0" d="M38.5,1.9c-0.7-0.7-1.7-1.1-2.7-1.1H4.6c-1.1,0-2,0.4-2.8,1.2C1.1,2.7,0.7,3.6,0.7,4.7v31.2
			c0,1.1,0.4,2,1.2,2.8c0.7,0.7,1.7,1.1,2.7,1.1h31.2c1.1,0,2-0.4,2.8-1.2c0.7-0.7,1.1-1.6,1.1-2.7V4.7C39.7,3.6,39.3,2.7,38.5,1.9z
			"/>
	</g>
	<path class="st6" d="M36.4,4.1c-0.6-0.7-1.5-1-2.4-1H6.4c-0.9,0-1.8,0.3-2.5,1C3.3,4.8,3,5.6,3,6.6V34c0,0.9,0.3,1.8,1,2.4
		c0.6,0.6,1.5,1,2.4,1H34c0.9,0,1.8-0.3,2.5-1c0.6-0.6,1-1.5,1-2.4V6.6C37.4,5.6,37.1,4.8,36.4,4.1z"/>
	<g>
		<path class="st0" d="M24.9,12.8h4.8v-2.7H11.2v2.7h4.7l-2.6,6.6H6.3v2.6h5.9l-3.2,8.1h3.1l3-8.1h10.6l3,8.1h3.1l-3.2-8.1h6v-2.6
			h-7L24.9,12.8z M16.2,19.5l2.5-6.6h3.6l2.5,6.6H16.2z"/>
		<rect x="28.4" y="16.6" class="st0" width="6.2" height="2.1"/>
		<rect x="6.3" y="16.6" class="st0" width="6.2" height="2.1"/>
	</g>
</g>
</svg>
