<?xml version="1.0" encoding="utf-8"?>
<!-- Generator: Adobe Illustrator 26.1.0, SVG Export Plug-In . SVG Version: 6.00 Build 0)  -->
<svg version="1.1" id="Layer_1" xmlns="http://www.w3.org/2000/svg" xmlns:xlink="http://www.w3.org/1999/xlink" x="0px" y="0px"
	 width="40px" height="40px" viewBox="0 0 40 40" style="enable-background:new 0 0 40 40;" xml:space="preserve">
<style type="text/css">
	.st0{fill:#231F20;}
	.st1{fill:#FFF64C;}
	.st2{fill:#FAB461;}
	.st3{fill:#0D0D0D;}
	.st4{fill:#FDDFBB;}
	.st5{fill:#CCEDDC;}
	.st6{fill:#CCEFFC;}
	.st7{fill:#EC1C24;stroke:#231F20;stroke-width:4.0987;stroke-linecap:round;stroke-linejoin:round;}
	.st8{fill:#FFFFFF;}
	.st9{fill:#231F20;stroke:#FFFF00;stroke-width:0.25;stroke-linecap:round;stroke-linejoin:round;}
	.st10{fill:#FFFFFF;stroke:#231F20;stroke-width:1.4622;stroke-linecap:round;stroke-linejoin:round;}
	.st11{fill:#FFFBD4;}
</style>
<g>
	<path class="st0" d="M38.28,1.5c-0.73-0.73-1.65-1.12-2.73-1.12H4.35c-1.07,0-2,0.39-2.78,1.17C0.84,2.28,0.45,3.2,0.45,4.27v31.2
		c0,1.07,0.39,2,1.17,2.77c0.73,0.73,1.66,1.12,2.73,1.12h31.2c1.08,0,2-0.39,2.78-1.17c0.73-0.73,1.12-1.66,1.12-2.73V4.27
		C39.45,3.2,39.06,2.28,38.28,1.5z"/>
	<g>
		<path class="st6" d="M36.03,3.75c-0.64-0.64-1.45-0.98-2.39-0.98H6.26c-0.94,0-1.75,0.34-2.44,1.03c-0.64,0.64-0.98,1.45-0.98,2.4
			v27.37c0,0.94,0.34,1.76,1.03,2.44c0.64,0.64,1.45,0.98,2.39,0.98h27.37c0.94,0,1.75-0.35,2.43-1.03c0.64-0.64,0.98-1.45,0.98-2.4
			V6.19C37.05,5.25,36.71,4.44,36.03,3.75z"/>
		<path class="st0" d="M25.35,23.72c-0.5,0.75-1.18,1.13-2.02,1.15c-0.95,0.03-1.68-0.35-2.2-1.14c-0.5,0.82-1.22,1.24-2.13,1.26
			c-0.95,0.02-1.69-0.37-2.24-1.18l0.04,0c-0.53,0.85-1.25,1.28-2.17,1.3c-0.89,0.02-1.61-0.33-2.16-1.07l0-0.04
			c-0.5,0.86-1.21,1.3-2.13,1.32c-1.29,0.04-2.13-0.6-2.53-1.9l9.23-4.15l-1.71-2.08l-8.54,2.24l0.35-1.63l8.96-3.99L25.35,23.72z"
			/>
		<path class="st0" d="M29.04,18.75c0.02,0.81-0.25,1.52-0.81,2.11c-0.56,0.6-1.25,0.9-2.06,0.93c-0.81,0.02-1.52-0.25-2.11-0.81
			c-0.59-0.56-0.9-1.25-0.92-2.07c-0.02-0.82,0.25-1.52,0.81-2.12c0.56-0.59,1.25-0.9,2.07-0.92c0.84-0.02,1.55,0.24,2.13,0.79
			C28.71,17.21,29.02,17.91,29.04,18.75z"/>
		<path class="st0" d="M32.2,24.16c-0.37,0.52-0.94,0.75-1.7,0.7c-0.48-0.03-0.96-0.16-1.44-0.38c-0.48,0.31-0.96,0.46-1.44,0.42
			c-0.62-0.04-1.16-0.36-1.6-0.97c0.39,0.16,0.76,0.25,1.11,0.27c0.96,0.06,1.63-0.32,2.01-1.13c0.74,0.74,1.5,1.13,2.27,1.18
			C31.72,24.28,31.98,24.25,32.2,24.16z"/>
	</g>
</g>
</svg>
