<?xml version="1.0" encoding="utf-8"?>
<!-- Generator: Adobe Illustrator 21.0.2, SVG Export Plug-In . SVG Version: 6.00 Build 0)  -->
<!DOCTYPE svg PUBLIC "-//W3C//DTD SVG 1.1//EN" "http://www.w3.org/Graphics/SVG/1.1/DTD/svg11.dtd">
<svg version="1.1" id="Layer_1" xmlns="http://www.w3.org/2000/svg" xmlns:xlink="http://www.w3.org/1999/xlink" x="0px" y="0px"
	 viewBox="0 0 40 40" style="enable-background:new 0 0 40 40;" xml:space="preserve">
<style type="text/css">
	.st0{fill:#231F20;}
	.st1{fill:#FFF64C;}
	.st2{fill:#FAB461;}
	.st3{fill:#FBCCE8;}
	.st4{fill:#0D0D0D;}
	.st5{fill:#FDDFBB;}
	.st6{fill:#CCEDDC;}
	.st7{fill:#CCEFFC;}
	.st8{fill:#EC1C24;stroke:#231F20;stroke-width:4.0987;stroke-linecap:round;stroke-linejoin:round;}
	.st9{fill:#FFFFFF;}
	.st10{fill:#231F20;stroke:#231F20;stroke-width:0.65;}
</style>
<g>
	<path class="st0" d="M38.4,1.7c-0.7-0.7-1.7-1.1-2.7-1.1H4.5c-1.1,0-2,0.4-2.8,1.2C1,2.5,0.6,3.4,0.6,4.5v31.2c0,1.1,0.4,2,1.2,2.8
		c0.7,0.7,1.7,1.1,2.7,1.1h31.2c1.1,0,2-0.4,2.8-1.2c0.7-0.7,1.1-1.7,1.1-2.7V4.5C39.6,3.4,39.2,2.5,38.4,1.7z"/>
	<g>
		<path class="st5" d="M36.2,4c-0.6-0.6-1.4-1-2.4-1H6.4C5.5,3,4.6,3.3,4,4C3.3,4.6,3,5.5,3,6.4v27.4c0,0.9,0.3,1.8,1,2.4
			c0.6,0.6,1.5,1,2.4,1h27.4c0.9,0,1.7-0.3,2.4-1c0.6-0.6,1-1.4,1-2.4V6.4C37.2,5.5,36.9,4.6,36.2,4z"/>
		<g>
			<path class="st0" d="M31.7,24.3c0.1,0.3,0.2,2.3,0.3,2.3c0,0.7,0,1.1,0.1,1.8c0.2,0-0.1,0.4-0.1,0.4c0,0.1-0.4,0.1-0.4,0.1
				c-2.1,0-4,0-6.1,0c-0.2,0-0.6,0.1-0.8,0c-0.3,0-0.8,0.1-1-0.1c-0.3,0,0-2.7,0-3c0-1,0.1-1.7,0.1-2.8c0.1,0,0-1.3,0-1.4
				c0-0.3-0.9,0-1.1-0.1c-0.7,0-1.7,0.5-2.1,0c-0.1-0.1-0.5-0.6-0.7-0.6c0-0.1-0.5-0.6-0.6-0.6c-0.1,0-0.3-0.2-0.4-0.3
				c-0.1-0.1-0.2-0.3-0.3-0.3c-0.2,0-0.2-0.2-0.3-0.3c-0.1,0-0.3-0.2-0.4-0.3c-0.2-0.2-0.6-0.4-0.6-0.6c-0.3,0-0.4-0.6-0.7-0.6
				c0,0-0.6-0.6-0.6-0.6c0,0-0.2-0.2-0.3-0.2c0,0-0.3-0.3-0.3-0.3c-0.1,0-0.3-0.1-0.4-0.1c0-0.1-0.6,0-0.7,0c0-0.1-0.3,0-0.4,0
				c-0.3,0-0.5,0-0.6-0.1c-0.3,0-0.6-0.3-0.8-0.5c-0.1-0.1-0.5-0.5-0.6-0.5c0-0.1-0.2-0.2-0.3-0.2c0-0.2-1.4-0.1-1.6-0.1
				c0,0-0.4,0-0.4,0c0,0-0.2,0-0.3,0c-0.3,0-0.7,0-1-0.1c-0.2,0-0.3,0.1-0.4,0c-0.3,0-0.5,0-0.7,0C7.2,15.1,7,15,7,15
				c0-0.4,0-0.3,0.3-0.4c0-0.1,1.2,0,1.3,0c0,0,0.6,0,0.6,0c0.1,0,0.6,0,0.8,0c0.3,0,0.4,0,0.6,0c0.5,0,1.1,0,1.6,0c1.2,0,2,0,3,0
				c0.5,0,0.9,0,1.2,0c0.3,0,0.5,0,1,0c1.2,0,2.2,0.1,3.4,0.1c0.4,0,0.9,0,1.2,0c0.1,0,0.2,0,0.3,0c0,0,0.2,0.2,0.2,0.2
				c0.1,0.4,0,0.9,0.1,1.3c0.1,0,0.1,0.2,0.1,0.3c0.2,0,0,0,0.2,0c0,0.1,0.5,0,0.6,0c0,0.1,2.4,0,2.6,0c0,0.1,1.2,0,1.4,0
				c0.4,0,0.8,0,1.1,0c0,0,1.1,0.2,1.2,0.2c0,0,0.8,0.5,0.8,0.5c0.1,0.2,0.5,0.4,0.4,0.7c0,0.1,0.2,0.3,0.2,0.4
				c0,0.2,0.2,0.7,0.1,0.9c0,0.1,0.2,1,0.2,1c0,0.2,0.1,1.3,0.1,1.3C31.5,22.7,31.7,23.5,31.7,24.3"/>
			<path class="st0" d="M29.3,14.4c0,0.1,0,0.2,0,0.3c0,0,0,0,0,0c0,0.1,0,0.3,0,0.4c0,0,0,0,0,0c0,0.1,0,0.2,0,0.3
				c-0.1,0,0,0.1-0.1,0.1c0,0,0,0,0,0c0,0,0,0.1,0,0.1c-0.1,0,0,0.1-0.1,0.1c0,0,0,0,0,0c0,0,0,0,0,0.1c0,0,0,0-0.1,0
				c0,0,0,0.1,0,0.1c0,0,0,0,0,0c0,0,0,0,0,0.1c0,0-0.1,0-0.1,0c0,0,0,0.1,0,0.1c0,0,0,0,0,0c0,0,0,0.1,0,0.1c0,0-0.1,0,0,0
				c0,0,0,0-0.1,0c0,0,0,0,0,0c0,0-0.1,0,0,0.1c0,0,0,0-0.1,0c0,0,0,0,0,0c0,0-0.1,0-0.1,0c0,0,0,0,0,0c-0.1,0-0.3,0-0.4,0
				c0,0,0,0,0,0c-0.1,0-0.2,0-0.4,0c0,0,0,0,0,0c-0.1,0-0.2,0-0.3,0c0,0,0,0,0,0c-0.1,0-0.2,0-0.2,0c0,0,0,0,0,0c-0.2,0-0.4,0-0.5,0
				c0,0,0,0,0,0c0,0-0.1,0-0.1,0c0,0,0,0,0,0c-0.2,0-0.3,0-0.5,0c0,0,0,0,0,0c-0.3,0-0.6,0-1,0c0,0,0,0,0-0.1c-0.1,0-0.2,0-0.3,0
				c0-0.1-0.1-0.1-0.1-0.1c0,0,0,0,0,0c0,0,0,0,0,0c0,0,0-0.1,0,0c0,0,0-0.1,0-0.1c0,0,0,0,0,0c0,0,0-0.1-0.1,0c0,0,0-0.1,0-0.1
				c0,0,0,0,0,0c0,0,0-0.1-0.1-0.1c0,0,0-0.1,0-0.1c0,0,0,0,0,0c0,0,0-0.1-0.1-0.1c0-0.1,0-0.1,0-0.2c0,0,0,0,0,0c0-0.1,0-0.1,0-0.2
				c0,0,0,0,0,0c0-0.1,0-0.1,0-0.2c0,0,0,0,0,0c0-0.2,0-0.4,0-0.6c0,0,0,0,0,0c0-0.1,0-0.1,0-0.2c0.1,0,0-0.1,0.1-0.1c0,0,0,0,0,0
				c0-0.1,0-0.1,0-0.2c0.1,0,0.1-0.1,0.1-0.1c0,0,0,0,0,0c0,0,0,0,0-0.1c0,0,0,0,0.1,0c0,0,0-0.1,0-0.1c0,0,0.1,0,0,0
				c0.1,0,0.1,0,0.1-0.1c0,0,0,0,0,0c0.1,0,0-0.1,0-0.1c0,0,0,0,0,0c0,0,0-0.1,0-0.1c0,0,0,0,0,0c0,0,0,0,0,0c0,0,0.1,0,0.1,0
				c0,0,0,0,0,0c0,0,0.1,0,0,0c0.1,0,0.1-0.1,0.1-0.1c0,0,0.1,0,0.1,0c0,0,0-0.1,0-0.1c0,0,0,0,0,0c0,0,0,0,0,0c0,0,0.1,0,0-0.1
				c0,0,0.1,0,0.1,0c0,0,0,0,0,0c0,0,0.1,0,0.1,0c0,0,0.1,0,0.1,0c0,0,0,0,0,0c0,0,0.1,0,0,0c0.1,0,0.1,0,0.1,0c0,0,0,0,0,0
				c0,0,0.1,0,0.1,0c0,0,0.1,0,0.1,0c0,0,0,0,0,0c0,0,0.1,0,0.1,0c0,0,0.1,0,0.1,0c0,0,0,0,0,0c0.1,0,0.1,0,0.2,0c0,0,0,0,0,0
				c0.1,0,0.2,0,0.3,0c0,0,0,0,0,0c0.1,0,0.1,0,0.1,0c0,0,0,0,0,0c0,0,0.1,0,0.1,0c0,0,0,0,0,0c0.2,0,0.3,0,0.5,0c0,0,0,0,0,0
				c0.1,0,0.1,0,0.2,0c0,0.1,0.1,0,0.1,0.1c0,0,0,0,0,0c0.1,0,0.2,0,0.2,0c0,0.1,0.1,0,0.1,0c0,0,0,0.1,0.1,0c0,0.1,0.1,0,0.1,0
				c0,0,0,0,0,0c0,0,0,0,0.1,0c0,0,0,0,0,0c0,0,0.1,0,0.1,0c0,0,0,0,0,0c0,0,0,0,0.1,0c0,0,0,0,0,0c0,0,0,0,0.1,0c0,0,0,0,0,0
				c0,0,0,0,0,0.1c0,0,0,0,0.1,0c0,0,0,0,0,0c0,0,0,0,0,0c0,0,0,0,0.1,0c0,0,0,0,0,0c0,0,0,0,0,0.1c0,0,0,0,0.1,0c0,0,0,0,0,0
				c0,0,0,0,0,0c0,0,0,0,0.1,0c0,0,0,0,0,0c0,0,0,0.1,0.1,0.1c0,0,0,0.1,0,0.1c0,0,0,0,0,0c0,0,0,0.1,0,0.1c0,0,0,0.1,0,0.1
				c0,0,0,0,0,0c0,0,0,0.1,0,0.1c0,0,0,0,0.1,0c0,0,0,0,0,0c0,0,0,0.1,0.1,0.1c0,0,0,0.1,0,0.1c0,0,0,0,0,0c0,0,0,0.1,0.1,0.1
				c0,0.1,0,0.1,0,0.1c0,0,0,0,0,0C29.3,14.1,29.3,14.2,29.3,14.4C29.3,14.3,29.3,14.3,29.3,14.4C29.3,14.3,29.3,14.3,29.3,14.4z"/>
		</g>
	</g>
</g>
</svg>
