<?xml version="1.0" encoding="utf-8"?>
<!-- Generator: Adobe Illustrator 21.0.2, SVG Export Plug-In . SVG Version: 6.00 Build 0)  -->
<!DOCTYPE svg PUBLIC "-//W3C//DTD SVG 1.1//EN" "http://www.w3.org/Graphics/SVG/1.1/DTD/svg11.dtd">
<svg version="1.1" id="Layer_1" xmlns="http://www.w3.org/2000/svg" xmlns:xlink="http://www.w3.org/1999/xlink" x="0px" y="0px"
	 viewBox="0 0 40 40" style="enable-background:new 0 0 40 40;" xml:space="preserve">
<style type="text/css">
	.st0{fill:#231F20;}
	.st1{fill:#FFF64C;}
	.st2{fill:#FAB461;}
	.st3{fill:#FBCCE8;}
	.st4{fill:#0D0D0D;}
	.st5{fill:#FDDFBB;}
	.st6{fill:#CCEDDC;}
	.st7{fill:#CCEFFC;}
	.st8{fill:#EC1C24;stroke:#231F20;stroke-width:4.0987;stroke-linecap:round;stroke-linejoin:round;}
	.st9{fill:#FFFFFF;}
</style>
<g>
	<g>
		<path class="st8" d="M35.3,19.9c0,8.5-6.9,15.4-15.4,15.4c-8.5,0-15.3-6.9-15.3-15.4c0-8.5,6.9-15.4,15.3-15.4
			C28.4,4.5,35.3,11.4,35.3,19.9z"/>
	</g>
	<path class="st9" d="M27.5,15.2c0,0.2-0.1,0.4-0.3,0.8c-2.3,4.3-5.2,9.6-5.7,10.7c-0.1,0.3-0.4,0.4-1.2,0.4c-2.2,0-4.3-0.6-4.6-1.6
		c-0.8-3.4-2.8-10.6-2.9-10.8c-0.1-0.2-0.1-0.4-0.1-0.5c0-0.3,0.4-0.4,1.3-0.4c2.1,0,4.7,0.5,4.8,1.5c0.1,0.7,1.1,6.6,1.6,7.9
		c1.1-1.6,3.6-6.9,4.6-9.1c0.1-0.2,0.2-0.2,0.5-0.2C26.2,13.7,27.5,14.1,27.5,15.2L27.5,15.2z"/>
</g>
</svg>
